<svg width="20" height="20" viewBox="0 0 20 20" fill="none" xmlns="http://www.w3.org/2000/svg">
<path d="M12.2384 9.59375L5.32031 8.375V17.3806C5.32023 17.4785 5.33947 17.5754 5.37693 17.6659C5.41438 17.7563 5.46932 17.8384 5.53859 17.9076C5.60786 17.9768 5.6901 18.0316 5.7806 18.0689C5.87109 18.1062 5.96806 18.1252 6.06594 18.125H18.0034C18.1014 18.1254 18.1985 18.1065 18.2892 18.0692C18.3798 18.032 18.4622 17.9772 18.5316 17.908C18.601 17.8389 18.656 17.7567 18.6936 17.6662C18.7311 17.5756 18.7504 17.4786 18.7503 17.3806V14.0625L12.2384 9.59375Z" fill="#185C37"/>
<path d="M12.2384 1.875H6.06594C5.96806 1.87476 5.87109 1.89383 5.7806 1.93114C5.6901 1.96844 5.60786 2.02324 5.53859 2.0924C5.46932 2.16155 5.41438 2.2437 5.37693 2.33413C5.33947 2.42456 5.32023 2.5215 5.32031 2.61938V5.9375L12.2384 10L15.9016 11.2188L18.7503 10V5.9375L12.2384 1.875Z" fill="#21A366"/>
<path d="M5.32031 5.9375H12.2384V10H5.32031V5.9375Z" fill="#107C41"/>
<path opacity="0.1" d="M10.2716 5.125H5.32031V15.2812H10.2716C10.4689 15.2803 10.6578 15.2016 10.7975 15.0623C10.9372 14.9229 11.0163 14.7342 11.0178 14.5369V5.86937C11.0163 5.67209 10.9372 5.48333 10.7975 5.34399C10.6578 5.20466 10.4689 5.12598 10.2716 5.125Z" fill="black"/>
<path opacity="0.2" d="M9.86469 5.53125H5.32031V15.6875H9.86469C10.062 15.6865 10.2509 15.6078 10.3906 15.4685C10.5303 15.3292 10.6095 15.1404 10.6109 14.9431V6.27562C10.6095 6.07834 10.5303 5.88958 10.3906 5.75024C10.2509 5.61091 10.062 5.53223 9.86469 5.53125Z" fill="black"/>
<path opacity="0.2" d="M9.86469 5.53125H5.32031V14.875H9.86469C10.062 14.874 10.2509 14.7953 10.3906 14.656C10.5303 14.5167 10.6095 14.3279 10.6109 14.1306V6.27562C10.6095 6.07834 10.5303 5.88958 10.3906 5.75024C10.2509 5.61091 10.062 5.53223 9.86469 5.53125Z" fill="black"/>
<path opacity="0.2" d="M9.45781 5.53125H5.32031V14.875H9.45781C9.6551 14.874 9.84406 14.7953 9.98375 14.656C10.1234 14.5167 10.2026 14.3279 10.2041 14.1306V6.27562C10.2026 6.07834 10.1234 5.88958 9.98375 5.75024C9.84406 5.61091 9.6551 5.53223 9.45781 5.53125Z" fill="black"/>
<path d="M1.99625 5.53125H9.4575C9.65514 5.53109 9.84477 5.6094 9.9847 5.74898C10.1246 5.88856 10.2034 6.07799 10.2038 6.27563V13.7244C10.2034 13.922 10.1246 14.1114 9.9847 14.251C9.84477 14.3906 9.65514 14.4689 9.4575 14.4688H1.99625C1.89832 14.4691 1.80128 14.4501 1.71072 14.4128C1.62015 14.3755 1.53784 14.3207 1.4685 14.2516C1.39916 14.1824 1.34417 14.1002 1.30667 14.0098C1.26918 13.9193 1.24992 13.8223 1.25 13.7244V6.27563C1.24992 6.1777 1.26918 6.08071 1.30667 5.99024C1.34417 5.89977 1.39916 5.81759 1.4685 5.74843C1.53784 5.67927 1.62015 5.62448 1.71072 5.58721C1.80128 5.54994 1.89832 5.53092 1.99625 5.53125Z" fill="url(#paint0_linear_2257_1103)"/>
<path d="M3.5625 12.4208L5.13188 9.99334L3.69437 7.57959H4.84875L5.63312 9.12522C5.70562 9.27147 5.75813 9.38021 5.78188 9.45271H5.7925C5.84375 9.33563 5.89792 9.22188 5.955 9.11146L6.79375 7.58209H7.85625L6.38188 9.98209L7.89375 12.4227H6.76313L5.85688 10.7283C5.81492 10.6554 5.77917 10.5791 5.75 10.5002H5.735C5.70851 10.5771 5.67328 10.6507 5.63 10.7196L4.69688 12.4208H3.5625Z" fill="white"/>
<path d="M18.0039 1.875H12.2383V5.9375H18.7502V2.61938C18.7502 2.52145 18.731 2.42446 18.6935 2.33399C18.656 2.24352 18.601 2.16134 18.5317 2.09218C18.4623 2.02302 18.38 1.96823 18.2894 1.93096C18.1989 1.89369 18.1018 1.87467 18.0039 1.875Z" fill="#33C481"/>
<path d="M12.2383 10H18.7502V14.0625H12.2383V10Z" fill="#107C41"/>
<defs>
<linearGradient id="paint0_linear_2257_1103" x1="2.80875" y1="4.94625" x2="8.645" y2="15.0538" gradientUnits="userSpaceOnUse">
<stop stop-color="#18884F"/>
<stop offset="0.5" stop-color="#117E43"/>
<stop offset="1" stop-color="#0B6631"/>
</linearGradient>
</defs>
</svg>
