<svg width="56" height="56" viewBox="0 0 56 56" fill="none" xmlns="http://www.w3.org/2000/svg">
<g filter="url(#filter0_d_2343_937)">
<rect x="8" y="8" width="40" height="40" rx="8" fill="#EDFFFD"/>
<rect x="8.5" y="8.5" width="39" height="39" rx="7.5" stroke="#CDF4F0"/>
<path d="M29.667 21.3337V30.117C30.3025 30.4839 30.7991 31.0502 31.0799 31.7281C31.3607 32.4061 31.41 33.1577 31.2201 33.8665C31.0302 34.5753 30.6117 35.2016 30.0295 35.6483C29.4474 36.095 28.7341 36.3371 28.0003 36.3371C27.2665 36.3371 26.5533 36.095 25.9711 35.6483C25.389 35.2016 24.9705 34.5753 24.7806 33.8665C24.5907 33.1577 24.6399 32.4061 24.9207 31.7281C25.2015 31.0502 25.6982 30.4839 26.3337 30.117V21.3337C26.3337 20.8916 26.5093 20.4677 26.8218 20.1551C27.1344 19.8426 27.5583 19.667 28.0003 19.667C28.4424 19.667 28.8663 19.8426 29.1788 20.1551C29.4914 20.4677 29.667 20.8916 29.667 21.3337Z" stroke="#00D1BC" stroke-width="1.3" stroke-linecap="round" stroke-linejoin="round"/>
</g>
<defs>
<filter id="filter0_d_2343_937" x="0" y="0" width="56" height="56" filterUnits="userSpaceOnUse" color-interpolation-filters="sRGB">
<feFlood flood-opacity="0" result="BackgroundImageFix"/>
<feColorMatrix in="SourceAlpha" type="matrix" values="0 0 0 0 0 0 0 0 0 0 0 0 0 0 0 0 0 0 127 0" result="hardAlpha"/>
<feMorphology radius="2" operator="dilate" in="SourceAlpha" result="effect1_dropShadow_2343_937"/>
<feOffset/>
<feGaussianBlur stdDeviation="3"/>
<feComposite in2="hardAlpha" operator="out"/>
<feColorMatrix type="matrix" values="0 0 0 0 0 0 0 0 0 0.819608 0 0 0 0 0.737255 0 0 0 0.16 0"/>
<feBlend mode="normal" in2="BackgroundImageFix" result="effect1_dropShadow_2343_937"/>
<feBlend mode="normal" in="SourceGraphic" in2="effect1_dropShadow_2343_937" result="shape"/>
</filter>
</defs>
</svg>
